Coordinates

Units are S.I. units (second, meters, Newtons, ...)
If the header above contains a line with 'inDegrees', this indicates whether rotational values are in degrees (yes) or radians (no).

inDegrees=no
nColumns=21
nRows=30
DataType=double
version=3
OpenSimVersion=4.6-2026-03-31-d6972f9e6
endheader
time	/jointset/ground_pelvis/pelvis_tilt/value	/jointset/ground_pelvis/pelvis_list/value	/jointset/ground_pelvis/pelvis_rotation/value	/jointset/ground_pelvis/pelvis_tx/value	/jointset/ground_pelvis/pelvis_ty/value	/jointset/ground_pelvis/pelvis_tz/value	/jointset/hip_r/hip_flexion_r/value	/jointset/hip_r/hip_adduction_r/value	/jointset/hip_r/hip_rotation_r/value	/jointset/walker_knee_r/knee_angle_r/value	/jointset/patellofemoral_r/knee_angle_r_beta/value	/jointset/ankle_r/ankle_angle_r/value	/jointset/subtalar_r/subtalar_angle_r/value	/jointset/hip_l/hip_flexion_l/value	/jointset/hip_l/hip_adduction_l/value	/jointset/hip_l/hip_rotation_l/value	/jointset/walker_knee_l/knee_angle_l/value	/jointset/patellofemoral_l/knee_angle_l_beta/value	/jointset/ankle_l/ankle_angle_l/value	/jointset/subtalar_l/subtalar_angle_l/value
142.496	-0.1333496045819784	0.0471838982446796	0.13337264274483	0.6609719816098307	1.003833673637964	-0.2421905060462648	-0.1582608591359395	-0.08399037715949959	-0.09007854995156973	0.9957142759937978	0.995714277883531	-0.5217298068778161	-0.2729840068936242	0.550515768612586	0.06907010208078983	-0.08854983033643909	0.448427790330036	0.448427791304051	-0.05334349394422832	0.07461257168742684
142.5	-0.1276691744319817	0.05173500867846222	0.1357958297811659	0.661068366548167	1.001012649472284	-0.2425666732348833	-0.1535048560170409	-0.09193016037790729	-0.0943415669568002	1.033236077251742	1.033236079122613	-0.5293766677515934	-0.2726782237276983	0.5445190254083891	0.07392261242170908	-0.08971575979598133	0.4751717579406313	0.4751717589862364	-0.02641140873965693	0.06576677565055683
142.504	-0.1224616555263243	0.0570152973839303	0.1382862025945416	0.6610807384568137	0.9981468381333334	-0.2429149784721081	-0.1478299879531781	-0.1009280223290297	-0.09864841132566204	1.070711550493056	1.07071155229034	-0.5376861631444145	-0.2730210559198665	0.538764071275019	0.07953369768657971	-0.09119949010056905	0.5023480985896399	0.5023480996631422	0.001465118943236536	0.05669474373419454
142.508	-0.1177752127896263	0.0629585406258065	0.1408192278556055	0.6610025876370453	0.9952543739094376	-0.2432337501922855	-0.1411466748480167	-0.1108883004929802	-0.1028487885690554	1.108051623116471	1.10805162478899	-0.5464465363902582	-0.2740390939848984	0.5332662343573253	0.0858369461115317	-0.09288607936801552	0.529678366022147	0.529678367075198	0.02993455200962848	0.04749328592783635
142.512	-0.1136431195316945	0.06948272995488272	0.1433609289278948	0.6608285087341185	0.9923547278439302	-0.2435211810066532	-0.1333739571975063	-0.1216907446538906	-0.1067830606783923	1.145163743505484	1.145163745006714	-0.5554267771883484	-0.2757164283440637	0.5280285140136569	0.09274400713284227	-0.09466149344456898	0.5568979257315571	0.5568979267131593	0.0586425058577013	0.03825614572326388
142.516	-0.1100827309274904	0.07649154045543803	0.1458683379702341	0.6605544351631172	0.9894683255889598	-0.2437753513206522	-0.124441975972563	-0.1331919808364846	-0.1102863338463141	1.181951699877854	1.1819517011672	-0.5643832362830384	-0.2779956105567744	0.5230402255394456	0.1001465231995303	-0.09641699693051549	0.5837590463099221	0.5837590471689089	0.08724357539166598	0.02907411462183276
142.52	-0.107095129892998	0.08387638720635482	0.1482903089267014	0.6601778195477119	0.9866161088293359	-0.2439942607881819	-0.114294078447878	-0.1452278890245385	-0.1131929593231889	1.218315758256101	1.218315759300351	-0.5730663522504479	-0.2807801722767883	0.5182762574870835	0.1079188754194017	-0.0980532743516726	0.6100334006102576	0.610033401298238	0.1154122977253513	0.02003471677828123
142.524	-0.1046654321532631	0.09151903825215128	0.150568690223527	0.6596977556460764	0.9838190664296306	-0.2441758725312377	-0.1028885575039465	-0.1576168964093928	-0.1153413256341365	1.254153070198614	1.254153070973497	-0.5812273186909366	-0.2839385608558748	0.5136969380855223	0.1159217047299627	-0.09948405947317407	0.6355139079441872	0.6355139084187107	0.1428527753761064	0.01122143056348072
142.528	-0.1027638002259866	0.09929469891105834	0.1526398309541044	0.6591150379258763	0.9810977536220449	-0.2443181711991654	-0.09019991450511838	-0.1701641341362834	-0.1165787828904786	1.289358334237554	1.289358334729238	-0.5886245306681397	-0.2873093381763213	0.5092485917415074	0.1240060990837932	-0.1006391205516084	0.6600158904663421	0.6600158906937709	0.1693065703849184	0.002712527606908246
142.532	-0.101347173138875	0.1070754388078573	0.1544363839819783	0.6584321570976037	0.978471817368511	-0.2444192331953268	-0.07621955280945628	-0.1826663262705433	-0.1167665133420507	1.323824692978156	1.323824693184361	-0.5950296541807909	-0.2907074639490665	0.504864838355335	0.1320182769077121	-0.1014664863750021	0.6833775742288295	0.6833775741863832	0.1945585774479705	-0.005420321751100004
142.536	-0.1003615750240315	0.1147338080100957	0.1558893688717629	0.6576532345391418	0.9759595542857208	-0.2444773077676588	-0.0609559610979775	-0.1949171995961314	-0.1157841609180425	1.357444800340687	1.357444800271026	-0.600233181521486	-0.2939314436366882	0.5004685384648565	0.1398045625733261	-0.1019337985010409	0.7054600095269793	0.7054600092037091	0.2184406907506387	-0.01311354294785705
142.54	-0.09974478671959326	0.1221464697601716	0.1569304473185888	0.6567839023969717	0.9735775297748337	-0.2444909076288721	-0.04443452221092359	-0.2067131516693953	-0.1135340444635136	1.390111963913331	1.3901119635886	-0.6040493765959709	-0.2967711015264864	0.49597419871586	0.1472164244912971	-0.1020287020853127	0.7261465070809251	0.726146506477813	0.2408332005995081	-0.02031314575512435
142.544	-0.09942917231863579	0.1291976664053879	0.1574943434222263	0.6558311384546864	0.9713402811834977	-0.2444589065601178	-0.02669705719660919	-0.2178588986375077	-0.1099448009465355	1.421721269547508	1.421721268997875	-0.6063205688044537	-0.2990157441637226	0.4912906503062811	0.1541153318143078	-0.1017582427627092	0.7453416862622471	0.7453416853918615	0.2616639922820658	-0.02697611020350078
142.548	-0.09934449725875916	0.1357823458355352	0.1575213174419345	0.6548030660756909	0.9692601183119787	-0.2443806405922521	-0.007801150895483276	-0.2281728444372452	-0.104974326332011	1.452170616670321	1.452170615932534	-0.6069207927798227	-0.3004624842498227	0.4863238491608106	0.1603771966265375	-0.1011472983347128	0.7629702244984182	0.7629702233843684	0.280905742797993	-0.0330715810613516
142.552	-0.09942068564259628	0.1418088161191729	0.1569595761273073	0.6537087286582497	0.9673470190898001	-0.2442560086658064	0.01218083003467591	-0.2374919810453952	-0.09861188767779061	1.481361646931118	1.481361646045126	-0.6057587662840094	-0.3009245054594606	0.4809797624815308	0.1658962116422086	-0.1002361625427033	0.7789754013602661	0.7789754000363247	0.2985713807133895	-0.03858178875237923
142.556	-0.09959056023682185	0.1472008437592776	0.1557674912209479	0.6525578464057662	0.9656086050317227	-0.2440855676646051	0.03316321746111602	-0.2456761917424749	-0.09087928988992912	1.50920059972222	1.50920059872773	-0.6027801612301164	-0.300239071228066	0.4751674098261096	0.1705879456298967	-0.09907747757586323	0.7933175402662979	0.793317538774878	0.314708090943939	-0.04350261681393327
142.56	-0.09979251884463322	0.1518991309487124	0.1539155131310165	0.6513605643232102	0.964050185697808	-0.2438706162272789	0.05504906980646742	-0.2526118060703812	-0.08183102671284265	1.535599104022895	1.535599102956495	-0.5979691049855985	-0.2982750806331038	0.4688020182580681	0.174391585888683	-0.09773269535008672	0.8059724406402409	0.805972439030093	0.3293901732300728	-0.04784375755643219
142.564	-0.09997291447553741	0.1558621163141658	0.1513876929915132	0.6501272036485363	0.9626748751913582	-0.243613262103472	0.07773252752254428	-0.2582142098000291	-0.07155342344496529	1.560474847376103	1.560474846269408	-0.5913488738182492	-0.2949399419036456	0.4618080238972272	0.1772712343938564	-0.09626818776813832	0.8169298601438634	0.8169298584672238	0.3427111410606668	-0.05162844921170871
142.568	-0.1000878842458224	0.1590660828326886	0.1481827353896149	0.6488680296695073	0.9614837836666219	-0.2433164670972372	0.1011012092891484	-0.2624293604463339	-0.0601628296815329	1.583752050864345	1.583752049743418	-0.5829817541380261	-0.2901854797131702	0.4541216058824139	0.179216205944411	-0.09475116022156851	0.8261920739580698	0.8261920722677656	0.3547755140665607	-0.0548928324790525
142.572	-0.1001046078762134	0.1615046157496756	0.1443144770481959	0.6475930439684912	0.9604762651797152	-0.2429840596617153	0.1250386357668683	-0.2652341772296157	-0.04780285328704946	1.605361765878063	1.605361764763988	-0.5729679578415213	-0.2840124351127483	0.4456926985622594	0.1802403268888492	-0.09324567866442923	0.8337725336512896	0.8337725319982831	0.3656907333270441	-0.05768496316756293
142.576	-0.1000022803793087	0.1631874892869976	0.1398116616422812	0.646311801482788	0.9596501768944301	-0.2426207026326816	0.1494270359686801	-0.266635869117523	-0.0346405013534602	1.625242122626118	1.625242121536255	-0.5614433294689537	-0.2764728875043658	0.436486782157382	0.1803802693291337	-0.0918092552414374	0.8396946709688157	0.8396946694003482	0.3755595393621323	-0.06006349607420246
142.58	-0.09977306412780963	0.164139054902717	0.1347169462257016	0.645033250516486	0.9590021090052433	-0.2422318107418979	0.1741508168798036	-0.2666702768310268	-0.02086116868492563	1.643338647344177	1.643338646293602	-0.5485756173975427	-0.267669976570344	0.4264867310612534	0.1796929944443483	-0.09049032491501609	0.8439908887104297	0.8439908872685422	0.3844730864887267	-0.06209608295122464
142.584	-0.09942289946880667	0.1643961925592989	0.1290852119195442	0.6437655996041709	0.9585275831770182	-0.2418234245821419	0.1991004031179733	-0.2653992713775133	-0.006662713378883012	1.659604611890462	1.659604610893359	-0.5345593417114211	-0.2577547477350888	0.41569453565918	0.1782524315276843	-0.08932664419047498	0.8467017223911647	0.8467017211112707	0.3925050650756295	-0.06385760336392877
142.588	-0.09897180266878121	0.1640059117638043	0.1229813447889503	0.6425162199231177	0.9582212427426779	-0.2414020530463648	0.2241757727564714	-0.2629072792786516	0.007750930172438577	1.674001280193073	1.674001279263884	-0.5196095078638964	-0.246920371366553	0.4041324040766954	0.1761455756346154	-0.08834447320892345	0.8478751040019236	0.8478751029113275	0.3997071075954769	-0.06542837986150631
142.592	-0.09845339523594238	0.1630227244440573	0.1164776923343524	0.6412915893782227	0.9580770506848298	-0.2409744975945029	0.2492891415816818	-0.2592971048687107	0.02217612574653011	1.686497944392116	1.686497943546095	-0.5039545504429388	-0.2353942300569433	0.3918428801377293	0.1734682376257132	-0.08755838596251662	0.8475656591886104	0.8475656583051167	0.4061056844431183	-0.06689248134011717
142.596	-0.09791359053414801	0.1615059179712895	0.1096514165225151	0.6400972792339834	0.9580885006025783	-0.2405476729644376	0.2743664896608087	-0.2546852937871608	0.03641544661668249	1.697071686912198	1.697071686165138	-0.4878290931380019	-0.2234286653246969	0.3788878344012769	0.1703207014984674	-0.08697153239407603	0.8458339857213473	0.8458339850522352	0.411700554791443	-0.06833614943789673
142.6	-0.0974084624487274	0.1595168451847403	0.1025819165082604	0.6389379804504711	0.9582488424653087	-0.2401284343727937	0.2993477938654565	-0.2491972835772115	0.05028276458981556	1.705706832929102	1.705706832296442	-0.4714672174944399	-0.2112913931638749	0.3653463173117856	0.1668035064764951	-0.08657621740580754	0.8427458730499889	0.8427458725917145	0.4164647060523867	-0.0698463291822108
142.604	-0.09700142710358245	0.1571163341685898	0.09534841810862428	0.6378175637695842	0.9585513175954229	-0.239723413979183	0.3241860223568001	-0.2429625613946428	0.06360732393746862	1.712394109508335	1.712394109004042	-0.4550967729749985	-0.1992564597080813	0.3513114090562977	0.1630135062319045	-0.08635477573138579	0.8383714479984196	0.838371447737383	0.4203456471117569	-0.07150923850635169
142.608	-0.09675996726292897	0.1543623004112328	0.08802780324729588	0.636739165392593	0.9589893885693855	-0.2393388681092574	0.3488451090498292	-0.2361100295678453	0.07623672488396446	1.717129576051708	1.717129575687196	-0.4389350050757468	-0.1875962929878026	0.3368863328648924	0.1590403153319047	-0.08628076345496663	0.8327842607493375	0.8327842606637565	0.4232679015290691	-0.07340887723743632
142.612	-0.09675216300850807	0.1513076256650198	0.0806927508214606	0.6357052896271551	0.9595569470994246	-0.238980538489837	0.3732971961003512	-0.228763758215623	0.0880388061473443	1.719913410046526	1.719913409829717	-0.4231855770981582	-0.1765751447644532	0.3221801480588513	0.1549632322454232	-0.08632045915433417	0.8260603389511895	0.8260603390136337	0.4251365402693381	-0.07562536508504902
